<?xml version="1.0" encoding="UTF-8" standalone="no"?>
<!-- Created with Inkscape (http://www.inkscape.org/) -->

<svg
   version="1.1"
   id="svg1"
   width="2000"
   height="2000"
   viewBox="0 0 2000 2000"
   sodipodi:docname="golden-crown.svg"
   inkscape:version="1.4.2 (f4327f4, 2025-05-13)"
   xmlns:inkscape="http://www.inkscape.org/namespaces/inkscape"
   xmlns:sodipodi="http://sodipodi.sourceforge.net/DTD/sodipodi-0.dtd"
   xmlns="http://www.w3.org/2000/svg"
   xmlns:svg="http://www.w3.org/2000/svg">
  <defs
     id="defs1" />
  <sodipodi:namedview
     id="namedview1"
     pagecolor="#505050"
     bordercolor="#eeeeee"
     borderopacity="1"
     inkscape:showpageshadow="0"
     inkscape:pageopacity="0"
     inkscape:pagecheckerboard="0"
     inkscape:deskcolor="#505050"
     inkscape:zoom="0.2715"
     inkscape:cx="1000"
     inkscape:cy="1000"
     inkscape:window-width="1366"
     inkscape:window-height="745"
     inkscape:window-x="-8"
     inkscape:window-y="-8"
     inkscape:window-maximized="1"
     inkscape:current-layer="g1" />
  <g
     inkscape:groupmode="layer"
     inkscape:label="Image"
     id="g1">
    <path
       style="fill:#000000"
       d="m 1077.1575,1260.6409 c -3.4327,-3.1216 -12.9913,-12.0759 -21.2413,-19.8982 -25.9375,-24.5931 -31.5368,-29.8284 -35.7499,-33.426 -4.5477,-3.8833 -4.094,-3.4468 -36.3783,-35 -12.6617,-12.375 -26.3626,-25.5661 -30.4465,-29.3136 -4.0839,-3.7474 -13.4016,-12.7061 -20.70613,-19.9081 l -13.2808,-13.0946 0.2808,65.4082 c 0.3087,71.9054 0.7153,75.9081 7.7094,75.9081 0.5893,0 1.0714,0.3596 1.0714,0.7991 0,1.434 6.5253,3.2009 11.82103,3.2009 5.0914,0 5.179,0.051 5.179,3.0092 v 3.0093 l -50.25003,-0.2593 -50.25001,-0.2592 v -2.5 c 0,-2.2969 0.4063,-2.5222 5,-2.7736 4.6017,-0.2518 12.4335,-3.2403 15.12041,-5.7696 4.9457,-4.6557 4.8626,-3.4959 5.1221,-71.4568 0.1334,-34.925 0.6959,-69.3019 1.25,-76.3932 1.6937,-21.6734 1.3502,-49.2613 -0.6228,-50.0184 -1.3686,-0.5252 -1.5532,-1.8263 -1.1502,-8.107 0.2641,-4.1148 0.109,-7.4814 -0.3447,-7.4814 -0.4536,0 -0.5731,-1.4625 -0.2656,-3.25 0.4259,-2.4753 0.3044,-2.8925 -0.5097,-1.75 -0.8637,1.2121 -1.0718,0.9721 -1.0842,-1.25 -0.012,-2.1606 0.467,-2.7714 2.2347,-2.8497 2.1586,-0.096 2.1484,-0.1322 -0.25,-0.9003 -2.2267,-0.7131 -2.2691,-0.8115 -0.3879,-0.9003 2.5033,-0.1182 12.6307,8.6985 11.7075,10.1922 -0.3457,0.5594 -0.1692,0.7332 0.3923,0.3862 1.2968,-0.8015 4.549,2.7015 3.5403,3.8134 -0.4137,0.456 -0.2498,0.5426 0.3642,0.1924 1.1479,-0.6547 4.1853,2.0331 4.3124,3.8161 0.039,0.55 0.6337,1.0205 1.3212,1.0455 0.6875,0.025 1.1264,0.6209 0.9753,1.3243 -0.1512,0.7034 0.1997,0.9856 0.7796,0.6272 1.0583,-0.654 21.6455,18.1492 21.8736,19.978 0.067,0.5362 -3.2535,-2.3775 -7.3785,-6.475 -4.125,-4.0975 -7.5,-7.1791 -7.5,-6.8482 0,1.1056 16.1825,16.3519 17.0897,16.1009 1.3037,-0.3606 4.9,2.955 4.2848,3.9505 -0.2877,0.4655 0.073,0.7227 0.8012,0.5716 0.7284,-0.1512 1.2007,0.3211 1.0496,1.0495 -0.1512,0.7284 0.1353,1.0709 0.6367,0.761 0.5013,-0.3098 1.4675,0.1068 2.1472,0.9257 0.6796,0.819 0.9005,1.489 0.4908,1.489 -0.4097,0 -0.1888,0.67 0.4909,1.489 0.6797,0.8189 1.6382,1.2402 2.1301,0.9362 1.3179,-0.8145 4.1269,2.3647 3.2883,3.7216 -0.4484,0.7256 -0.2816,0.8924 0.4439,0.444 0.6392,-0.3951 1.7617,-0.1271 2.4946,0.5954 0.7328,0.7226 6.66143,6.2638 13.17473,12.3138 6.5133,6.05 14.821,13.925 18.4617,17.5 3.6406,3.575 8.6211,8.2606 11.0676,10.4124 2.4465,2.1518 7.6445,6.8768 11.551,10.5 3.9065,3.6232 8.2533,7.4888 9.6596,8.5903 1.4064,1.1014 4.5102,3.905 6.8973,6.2302 5.0372,4.9062 6.2013,6.027 9.1631,8.8213 1.1975,1.1298 3.1677,3.1548 4.3783,4.5 4.1098,4.5667 9.7923,9.6087 11.5489,10.2471 0.9625,0.3497 1.75,1.4001 1.75,2.334 0,0.9339 0.257,1.441 0.5712,1.1268 0.9125,-0.9125 1.1653,-10.0355 1.8495,-66.7621 0.355,-29.425 0.8661,-55.75 1.1358,-58.5 0.3145,-3.206 0.1624,-4.5041 -0.4237,-3.6179 -1.1,1.6631 -2.694,-2.1651 -1.623,-3.8979 0.3514,-0.5686 0.2217,-0.9101 -0.2882,-0.759 -0.5099,0.1512 -2.6268,-1.7502 -4.7042,-4.2252 -2.0774,-2.475 -3.9463,-4.3605 -4.1531,-4.19 -1.8452,1.5207 -14.0734,-1.2579 -13.9744,-3.1754 l 0.1101,-2.1346 47,-0.5 c 25.85,-0.275 47.9,-0.191 49,0.1866 1.1,0.3777 1.4375,0.7152 0.75,0.75 -0.6875,0.035 -1.1967,0.4009 -1.1316,0.8134 0.3802,2.4079 -0.7341,3.0693 -6.3684,3.7798 -3.4375,0.4335 -6.7786,0.7047 -7.4246,0.6027 -0.646,-0.1021 -1.503,0.3459 -1.9045,0.9955 -0.502,0.8123 -0.2914,0.9155 0.6746,0.3306 0.7725,-0.4678 -0.093,0.8681 -1.923,2.9685 -1.8302,2.1005 -3.8085,4.8746 -4.3962,6.1646 -0.5878,1.2901 -1.3405,2.1772 -1.6725,1.9713 -0.3321,-0.2058 -0.4928,11.6208 -0.3572,26.2814 0.1356,14.6606 0.4399,57.7056 0.6761,95.6556 0.3918,62.9542 0.8581,76.3337 3.1138,89.3512 0.5669,3.2716 0.4078,4.5704 -0.6413,5.2347 -2.2186,1.4049 -2.5791,1.2173 -9.1539,-4.7617 z m 158.7587,4.57 c -3.3,-0.4464 -8.8246,-1.1178 -12.2769,-1.492 -3.4523,-0.3742 -6.5164,-1.0678 -6.8091,-1.5413 -0.2926,-0.4735 -2.0866,-0.8609 -3.9866,-0.8609 -1.9,0 -4.2359,-0.3948 -5.191,-0.8772 -0.955,-0.4825 -3.5364,-1.4198 -5.7364,-2.083 -5.4209,-1.6339 -15.3236,-5.858 -16.5,-7.0382 -0.275,-0.2759 -1.5125,-1.0641 -2.75,-1.7516 -1.2375,-0.6875 -3.256,-1.8125 -4.4856,-2.5 -9.0247,-5.0459 -24.7076,-19.1099 -30.2644,-27.1403 -6.2852,-9.0829 -10.5,-16.0465 -10.5,-17.3478 0,-0.706 -0.9448,-3.4163 -2.0997,-6.0228 -7.2821,-16.4363 -9.088,-27.333 -8.5963,-51.868 0.4555,-22.7254 1.9089,-32.8683 5.8188,-40.6075 0.4824,-0.9551 0.8772,-2.4274 0.8772,-3.272 0,-2.4998 5.8686,-14.6909 6.796,-14.1177 0.4687,0.2897 0.8188,-0.4635 0.7781,-1.6736 -0.041,-1.2188 0.4674,-2.0941 1.1399,-1.9623 0.682,0.1337 0.9737,-0.3882 0.6657,-1.191 -0.5501,-1.4335 6.4183,-12.4379 7.9212,-12.5091 0.4405,-0.021 -0.2806,1.4246 -1.6025,3.2121 -2.7132,3.669 -4.543,6.829 -3.0399,5.25 2.9555,-3.105 6.368,-8.6481 5.8449,-9.4944 -0.3523,-0.5701 0.076,-0.7205 1.0197,-0.3584 1.1989,0.4601 1.5414,0.1282 1.3019,-1.2614 -0.1848,-1.0726 0.1985,-1.7832 0.889,-1.6478 0.751,0.1472 0.9708,-0.3958 0.5764,-1.4236 -0.4932,-1.2852 -0.2333,-1.5065 1.1473,-0.9767 1.2861,0.4935 1.6343,0.2923 1.2459,-0.7199 -0.6409,-1.6701 2.986,-5.2705 5.8164,-5.7738 1.1,-0.1956 2.4469,-1.3717 2.993,-2.6136 0.5462,-1.2418 1.5533,-2.0429 2.238,-1.7801 0.6848,0.2627 1.1379,-0.069 1.007,-0.7363 -0.1309,-0.6677 0.5177,-1.2197 1.4414,-1.2268 0.9237,-0.01 2.0487,-0.4166 2.5,-0.9103 0.4763,-0.5209 0.1912,-0.5744 -0.6794,-0.1275 -0.825,0.4236 -0.15,-0.3839 1.5,-1.7944 1.894,-1.619 3.7373,-2.3727 5,-2.0442 1.3027,0.3388 1.5704,0.2191 0.7677,-0.3434 -1.6386,-1.1483 9.0362,-6.8157 10.7928,-5.73 0.7626,0.4713 0.996,0.3631 0.5998,-0.2781 -0.8114,-1.3129 1.5367,-2.2546 5.6715,-2.2746 2.309,-0.011 2.7755,-0.2637 1.7204,-0.9313 -1.1386,-0.7203 -0.8838,-1.0576 1.1931,-1.5788 1.4526,-0.3646 3.1861,-0.326 3.8524,0.086 0.7595,0.4694 0.9519,0.3289 0.5159,-0.3766 -0.4294,-0.6947 0.3723,-1.3541 2.0955,-1.7237 1.535,-0.3292 3.8246,-1.0174 5.088,-1.5293 1.2633,-0.5119 3.6554,-0.9308 5.3157,-0.9308 1.6603,0 3.7895,-0.4125 4.7316,-0.9167 0.9421,-0.5042 5.975,-1.1432 11.1843,-1.42 5.2092,-0.2767 10.3058,-0.8304 11.3257,-1.2303 5.1769,-2.0299 58.6147,3.19 57.1368,5.5813 -0.3544,0.5734 0.6143,0.7146 2.4223,0.353 4.1269,-0.8254 9.0214,0.4007 7.0343,1.7621 -1.0267,0.7035 -0.5091,0.8072 1.7797,0.3568 3.4292,-0.6749 7.6034,0.1694 6.8516,1.3858 -0.2475,0.4004 1.0699,0.728 2.9275,0.728 1.8576,0 4.4161,0.4992 5.6854,1.1093 1.2694,0.6101 3.124,1.372 4.1214,1.693 1.0092,0.3248 1.508,1.0777 1.1248,1.6978 -0.4632,0.7494 -0.01,0.8985 1.3866,0.4555 3.6112,-1.1462 7.9915,1.8767 7.4662,5.1525 -0.3017,1.8818 -0.1479,2.3676 0.4716,1.4903 0.9466,-1.3404 2.2374,22.8684 2.2374,41.9613 0,8.2458 -0.2526,9.8403 -1.559,9.8403 -0.8575,0 -1.2809,0.45 -0.941,1 0.3399,0.55 -0.136,1 -1.0576,1 -1.1837,0 -1.522,-0.5876 -1.1523,-2.0014 0.2879,-1.1007 0.1592,-1.7763 -0.2859,-1.5012 -1.1909,0.736 -2.9355,-4.9851 -2.3417,-7.6792 0.3618,-1.6415 0.2344,-1.9289 -0.4366,-0.9844 -1.2819,1.8045 -2.5069,-1.2705 -1.6831,-4.2247 0.4189,-1.502 0.3175,-1.7186 -0.3523,-0.7523 -1.3546,1.9541 -2.397,-0.186 -1.6127,-3.3108 0.4114,-1.639 0.2231,-2.546 -0.5284,-2.546 -0.6421,0 -0.8463,0.5195 -0.4539,1.1545 0.4563,0.7383 0.2727,0.8821 -0.5092,0.3989 -0.6724,-0.4157 -0.9721,-1.4086 -0.6659,-2.2065 0.3062,-0.7979 0.1344,-1.1898 -0.3817,-0.8708 -0.5161,0.3189 -1.4109,-0.3031 -1.9885,-1.3824 -1.3883,-2.5939 -1.326,-3.3705 0.1998,-2.4924 0.7262,0.4179 0.9008,0.3379 0.4167,-0.191 -0.4584,-0.5007 -1.3209,-0.9103 -1.9167,-0.9103 -0.5958,0 -1.2917,-0.6251 -1.5464,-1.3892 -0.3202,-0.9607 -0.038,-1.1328 0.9167,-0.558 1.1574,0.6972 1.1553,0.5546 -0.013,-0.885 -0.7659,-0.9439 -1.6363,-1.4723 -1.9343,-1.1744 -0.6434,0.6434 -7.1732,-5.4998 -7.1732,-6.7486 0,-0.4746 0.5625,-0.5697 1.25,-0.2115 0.6875,0.3582 -0.6394,-1.185 -2.9487,-3.4293 -2.4875,-2.4174 -4.7898,-3.8538 -5.6489,-3.5241 -0.7975,0.306 -1.7901,0.01 -2.2058,-0.6662 -0.5242,-0.8483 -0.3256,-0.9732 0.6489,-0.4079 0.7998,0.464 1.0586,0.4358 0.6012,-0.065 -0.4418,-0.4842 -1.7918,-0.8938 -3,-0.9104 -1.2082,-0.016 -2.1107,-0.5129 -2.0057,-1.1031 0.1051,-0.5901 -0.7949,-1.0401 -2,-1 -1.2111,0.04 -2.0846,-0.4698 -1.953,-1.1409 0.1324,-0.6754 -0.3875,-0.974 -1.1719,-0.673 -0.7754,0.2975 -2.4469,-0.014 -3.7144,-0.6924 -8.1857,-4.3808 -46.0718,-8.4166 -47.3598,-5.045 -0.384,1.005 -1.8544,1.2479 -5.4582,0.9017 -2.7129,-0.2607 -4.8428,-0.073 -4.7332,0.418 0.2548,1.1391 -10.3834,4.9869 -12.0352,4.353 -0.6827,-0.262 -1.1342,0.07 -1.0033,0.7377 0.1309,0.6677 -0.5447,1.1523 -1.5012,1.0769 -0.9566,-0.075 -1.4906,0.2653 -1.1867,0.7571 0.304,0.4918 -0.2634,1.1925 -1.2607,1.5573 -0.9974,0.3647 -3.089,1.7145 -4.6481,2.9996 -1.559,1.2851 -3.2577,2.075 -3.7747,1.7555 -0.5171,-0.3196 -0.8165,0.015 -0.6654,0.7433 0.1512,0.7284 -0.3211,1.2007 -1.0495,1.0495 -0.7284,-0.1511 -1.0834,0.1151 -0.7889,0.5916 0.5261,0.8513 -5.8522,7.6832 -7.1732,7.6832 -0.3714,0 -0.6839,0.45 -0.6944,1 -0.021,1.0907 -5.5189,9.5 -6.2111,9.5 -0.2344,0 -0.105,-0.5195 0.2874,-1.1545 0.4195,-0.6788 0.2765,-0.8844 -0.3471,-0.499 -0.5834,0.3605 -0.8387,1.5043 -0.5674,2.5416 0.2713,1.0374 -0.072,2.2358 -0.7638,2.6631 -0.9147,0.5653 -1.0602,0.2639 -0.5343,-1.1067 0.3975,-1.0359 0.3615,-1.5198 -0.08,-1.0752 -0.4416,0.4447 -0.8029,2.0059 -0.8029,3.4696 0,1.4636 -0.5163,2.564 -1.1474,2.4453 -0.6808,-0.128 -0.9378,0.5859 -0.632,1.7553 0.2835,1.0841 0.095,2.5313 -0.4198,3.2158 -0.5143,0.6846 -1.7507,3.9447 -2.7474,7.2447 -0.9968,3.3 -2.204,7.0337 -2.6828,8.2971 -0.4788,1.2633 -0.8706,3.8804 -0.8706,5.8157 0,1.9353 -0.3933,4.2766 -0.874,5.2029 -4.3051,8.2965 -0.4992,69.6082 4.9921,80.4207 0.4851,0.9551 0.8819,2.6426 0.8819,3.75 0,1.1075 0.45,2.0136 1,2.0136 0.55,0 1,1.125 1,2.5 0,1.375 0.45,2.5 1,2.5 0.55,0 1.0329,0.7875 1.0731,1.75 0.04,0.9625 0.9352,3.1 1.989,4.75 1.0537,1.65 2.2356,3.675 2.6264,4.5 0.3908,0.825 1.5207,2.3724 2.511,3.4386 0.9903,1.0662 1.8005,2.2494 1.8005,2.6294 0,1.0787 7.1877,8.2176 11.5556,11.4772 2.1694,1.6189 4.1694,3.1922 4.4444,3.4962 12.5918,13.9218 56.2821,12.6117 75.1738,-2.2541 6.4959,-5.1115 6.7977,-5.4138 9.7734,-9.7873 4.5723,-6.7201 8.0181,-9.0688 10.7137,-7.3026 l 2.3393,1.532 v -31.2374 c 0,-28.5178 -0.1393,-31.1219 -1.5996,-29.9099 -1.6609,1.3784 -7.4177,1.4333 -8.3611,0.08 -1.242,-1.782 -10.3028,-5.1624 -13.8373,-5.1624 -8.4412,0 -9.7537,-5.4315 -1.5231,-6.3036 7.6542,-0.8109 87.6902,-0.2812 89.0334,0.5893 2.897,1.8776 -0.7214,5.5766 -6.6039,6.7509 -13.5635,2.7077 -13.1084,1.4 -13.1084,37.6628 0,18.8671 -0.3561,29.3006 -1,29.3006 -0.55,0 -1,0.6331 -1,1.4069 0,0.7738 -2.3625,3.3406 -5.25,5.7041 -2.8875,2.3635 -6.0223,5.0703 -6.9662,6.015 -0.9439,0.9448 -2.6314,2.0082 -3.75,2.3633 -1.1186,0.355 -2.0338,1.0652 -2.0338,1.5781 0,0.5129 -0.675,0.9326 -1.5,0.9326 -0.825,0 -1.5,0.3975 -1.5,0.8834 0,0.4858 -0.7875,1.1478 -1.75,1.4709 -0.9625,0.3232 -2.425,1.0421 -3.25,1.5976 -5.3624,3.6107 -12.4557,7.0481 -14.544,7.0481 -1.3508,0 -2.456,0.3975 -2.456,0.8834 0,0.4858 -0.7875,1.1229 -1.75,1.4156 -0.9625,0.2928 -4.2186,1.4702 -7.2359,2.6166 -3.0172,1.1464 -6.4782,2.0844 -7.691,2.0844 -1.2128,0 -2.4832,0.45 -2.8231,1 -0.3399,0.55 -2.5899,1 -5,1 -2.4101,0 -4.6252,0.3936 -4.9225,0.8746 -0.5231,0.8464 -2.3228,1.1151 -20.5775,3.072 -10.1296,1.086 -22.2396,1.0652 -30.5,-0.052 z m 223,-0.035 c -3.3,-0.4655 -8.5947,-1.129 -11.766,-1.4743 -3.1713,-0.3454 -6.0103,-1.0234 -6.309,-1.5066 -0.2987,-0.4833 -2.2899,-0.8787 -4.425,-0.8787 -2.1351,0 -4.1601,-0.45 -4.5,-1 -0.3399,-0.55 -1.6859,-1 -2.9911,-1 -3.3577,0 -19.4196,-8.3062 -23.1898,-11.9923 -5.1306,-5.0161 -5.3018,-42.4282 -0.2086,-45.576 0.4892,-0.3023 0.9258,-1.5357 0.9701,-2.7407 0.4293,-11.6666 10.9194,-13.6479 10.9194,-2.0624 0,5.7142 1.4596,13.6196 3.0663,16.6078 0.5136,0.9551 0.9337,2.4176 0.9337,3.25 0,0.8325 0.45,1.5136 1,1.5136 0.55,0 1,0.9 1,2 0,1.1 0.3778,2 0.8395,2 0.4617,0 1.3215,1.0125 1.9107,2.25 2.4825,5.2143 14.0125,15.6894 20.2498,18.3971 13.4645,5.8452 15.8061,6.3549 29.0334,6.3203 22.0484,-0.058 36.3598,-7.7462 42.4868,-22.8249 2.899,-7.1344 3.3439,-16.962 0.9736,-21.5068 -0.8216,-1.5754 -1.4938,-3.4163 -1.4938,-4.0909 0,-2.0905 -8.2617,-10.0985 -14.5293,-14.0831 -3.2839,-2.0878 -6.1207,-4.1707 -6.304,-4.6288 -0.1834,-0.4581 -0.9709,-0.8329 -1.75,-0.8329 -0.7792,0 -1.4167,-0.45 -1.4167,-1 0,-0.55 -0.5088,-1 -1.1306,-1 -0.6218,0 -3.3228,-1.575 -6.0023,-3.5 -2.6794,-1.925 -5.2182,-3.5 -5.6416,-3.5 -0.4234,0 -2.3348,-1.2563 -4.2477,-2.7919 -1.9128,-1.5355 -8.6528,-6.1209 -14.9778,-10.1898 -6.325,-4.0689 -11.725,-7.6734 -12,-8.0101 -0.275,-0.3367 -5,-3.5716 -10.5,-7.1887 -13.4375,-8.8372 -22.2739,-17.9009 -26.1468,-26.8195 -0.5971,-1.375 -1.5803,-3.625 -2.185,-5 -4.7176,-10.7279 -5.5866,-44.4368 -0.9766,-37.8799 0.6772,0.9632 0.7826,0.5239 0.3489,-1.4551 -0.7337,-3.348 0.1942,-6.947 1.5716,-6.0957 0.5936,0.3668 0.7012,-0.4648 0.2783,-2.1499 -0.5833,-2.3243 -0.4252,-2.6467 1.0253,-2.0901 1.3567,0.5206 1.5859,0.2511 1.0968,-1.29 -0.6586,-2.0749 2.1571,-7.3615 3.484,-6.5415 0.4277,0.2644 0.716,-0.302 0.6406,-1.2586 -0.075,-0.9565 0.4092,-1.6321 1.0769,-1.5012 0.6677,0.1309 0.9948,-0.3332 0.7269,-1.0314 -0.4557,-1.1877 5.8431,-8.2066 7.3646,-8.2066 0.382,0 0.5828,-0.3352 0.4462,-0.7449 -0.4045,-1.2136 8.0226,-6.8638 9.4309,-6.3234 0.7114,0.273 1.1863,-0.05 1.0554,-0.7177 -0.1318,-0.6725 0.7435,-1.181 1.9623,-1.1399 1.2101,0.041 1.9691,-0.3 1.6866,-0.7571 -0.2825,-0.4571 0.3024,-1.0938 1.2997,-1.4147 0.9974,-0.321 2.7912,-1.0503 3.9864,-1.6207 1.1951,-0.5704 3.3703,-0.7366 4.8337,-0.3693 1.6906,0.4243 2.4331,0.2993 2.0362,-0.3429 -1.5851,-2.5647 20.1165,-4.5192 35.3815,-3.1867 6.9166,0.6038 15.6698,1.2799 19.4517,1.5025 3.7818,0.2226 7.1568,0.7895 7.5,1.2598 0.3431,0.4702 6.325,0.855 13.2931,0.855 6.9681,0 12.9337,0.2656 13.257,0.5903 0.873,0.8768 -0.5359,6.9599 -1.4773,6.3781 -0.4442,-0.2745 -0.5567,1.9316 -0.2501,4.9024 0.6927,6.7117 -0.5529,20.8374 -1.771,20.0846 -0.4953,-0.3061 -0.7396,0.8254 -0.5429,2.5146 0.1966,1.6891 -0.034,3.3134 -0.5137,3.6096 -0.4791,0.2961 -0.8396,1.2994 -0.8009,2.2294 0.058,1.3954 0.235,1.3414 1.0124,-0.309 0.6899,-1.4645 0.8342,-0.6951 0.5386,2.8737 -0.6854,8.2776 -5.2029,9.0123 -4.9866,0.811 0.088,-3.3292 -0.2604,-5.0342 -1,-4.8963 -0.652,0.1216 -1.133,-1.1314 -1.1306,-2.9454 0,-1.7364 -0.3127,-2.9613 -0.6998,-2.722 -1.0788,0.6667 -2.9911,-3.5097 -2.196,-4.7962 0.3968,-0.6421 0.258,-0.8602 -0.3201,-0.5029 -1.4318,0.8849 -4.6522,-2.9239 -3.7317,-4.4134 0.4452,-0.7203 0.3353,-0.9597 -0.2692,-0.5861 -0.5619,0.3473 -3.4439,-1.056 -6.4045,-3.1184 -4.7994,-3.3435 -7.8085,-4.6398 -15.6473,-6.741 -1.2455,-0.3338 -2.0771,-0.9121 -1.8481,-1.285 0.2291,-0.3729 -5.5722,-0.678 -12.8917,-0.678 -7.3196,0 -12.8114,0.3066 -12.2042,0.6813 1.4683,0.9059 -3.8292,2.2101 -5.8412,1.438 -0.8977,-0.3445 -1.2943,-0.1758 -0.9389,0.3992 0.3385,0.5476 -0.2007,1.2527 -1.198,1.567 -0.9974,0.3143 -2.9384,1.1514 -4.3134,1.8604 -1.375,0.7089 -3.1251,1.0653 -3.8892,0.7918 -0.7641,-0.2734 -1.1321,-0.081 -0.818,0.4271 0.7649,1.2375 -7.7339,9.5395 -8.7875,8.5841 -0.4543,-0.4119 -0.5213,-0.2173 -0.1491,0.4324 0.3723,0.6497 0.022,2.6747 -0.7785,4.5 -0.8006,1.8253 -1.7389,4.6452 -2.0853,6.2665 -0.4857,2.2734 -0.8394,2.6166 -1.5458,1.5 -0.6334,-1.0012 -0.916,-0.06 -0.916,3.0522 0,3.1119 0.2826,4.0534 0.916,3.0522 0.7076,-1.1184 1.0665,-0.7771 1.5776,1.5 0.3639,1.6213 0.8931,3.7917 1.1759,4.823 0.3641,1.3278 0.1458,1.6476 -0.7475,1.0955 -0.8262,-0.5106 -1.0119,-0.3756 -0.538,0.3911 0.398,0.644 1.0699,0.9568 1.4932,0.6952 0.4233,-0.2617 2.0471,1.2225 3.6084,3.2981 3.0179,4.0121 14.3526,13.1449 16.3142,13.1449 0.6433,0 1.1696,0.45 1.1696,1 0,0.55 0.4413,1 0.9806,1 1.2752,0 12.4178,7.0804 12.8527,8.1671 0.1834,0.4581 0.7526,0.8329 1.265,0.8329 1.2197,0 29.301,18.114 29.735,19.1808 0.1834,0.4506 0.7706,0.8192 1.3049,0.8192 0.5343,0 3.7593,1.9091 7.1667,4.2425 6.0473,4.1414 8.3769,5.5567 13.8981,8.4437 1.4867,0.7774 3.8201,2.741 5.1855,4.3636 1.3653,1.6226 2.9308,2.9502 3.4788,2.9502 0.5481,0 2.018,1.4625 3.2664,3.25 1.2485,1.7875 2.5166,3.475 2.8181,3.75 0.6121,0.5583 2.242,3.3779 5.5624,9.6227 6.4305,12.0941 5.5064,41.2171 -1.7889,56.3773 -5.2926,10.9984 -18.3804,26 -22.6831,26 -0.5732,0 -1.0422,0.3975 -1.0422,0.8834 0,0.4858 -0.7875,1.1319 -1.75,1.4357 -0.9625,0.3039 -3.325,1.4241 -5.25,2.4894 -1.925,1.0653 -4.85,2.4967 -6.5,3.1809 -1.65,0.6842 -3.7814,1.6414 -4.7364,2.1273 -0.9551,0.4858 -3.066,0.8833 -4.691,0.8833 -1.625,0 -3.1978,0.3936 -3.4951,0.8746 -0.2973,0.4811 -2.9114,1.1523 -5.809,1.4916 -2.8977,0.3393 -8.4185,1.0476 -12.2685,1.574 -8.2725,1.1311 -19.6421,1.0984 -28,-0.081 z m -984.83334,-4.5263 c -2.687,-2.687 0.2246,-5.3333 5.8681,-5.3333 7.9028,0 16.5288,-7.1939 18.3058,-15.2668 0.7789,-3.5382 1.3156,-27.9059 1.657,-75.2332 0.2778,-38.5 0.7733,-78.4865 1.101,-88.8589 0.6133,-19.4107 0,-29.1953 -1.6699,-26.56 -0.6367,1.006 -0.9025,0.4559 -0.9134,-1.8901 -0.01,-1.9482 -0.4265,-3.0549 -1.0153,-2.691 -0.8993,0.5558 -1.4331,-0.7567 -1.1184,-2.75 0.065,-0.4125 -0.2191,-0.6499 -0.6316,-0.5276 -1.3175,0.3907 -6.2551,-3.4051 -5.667,-4.3566 0.3111,-0.5034 0.1947,-0.816 -0.2586,-0.6947 -1.8679,0.5001 -12.3339,-1.3856 -12.4494,-2.2431 -0.069,-0.5104 -0.1815,-1.4905 -0.2506,-2.178 -0.1174,-1.1673 90.4141,-2.9681 95.559,-1.9008 1.3851,0.2873 1.494,0.7648 0.6146,2.695 -0.9648,2.1174 -9.6335,4.5436 -13.048,3.6517 -0.4125,-0.1077 -0.6375,0.1564 -0.5,0.587 0.3325,1.0413 -6.5198,7.7613 -7.5743,7.4281 -0.4534,-0.1433 -0.5368,0.2046 -0.1854,0.7732 1.0921,1.7671 -0.525,5.5449 -1.6686,3.8979 -0.6367,-0.917 -0.7644,0.4685 -0.3795,4.1179 0.319,3.025 0.6378,45.1 0.7084,93.5 0.1572,107.8611 0.071,107.3968 20.2482,108.7404 4.4645,0.2973 7.1889,3.1232 4.6012,4.7728 -1.6964,1.0814 -100.2606,1.3928 -101.3333,0.3201 z m 196.0654,0.065 c -0.3307,-0.3307 -3.2182,-0.9771 -6.4167,-1.4363 -9.05,-1.2995 -13.4469,-2.4555 -18.2532,-4.7988 -2.4408,-1.19 -5.0283,-2.1636 -5.75,-2.1636 -0.7217,0 -1.3122,-0.4012 -1.3122,-0.8916 0,-0.4904 -1.042,-1.1531 -2.3156,-1.4728 -1.2735,-0.3196 -3.2869,-1.3809 -4.4742,-2.3584 -1.1873,-0.9774 -3.6613,-2.8736 -5.4979,-4.2137 -1.8366,-1.3401 -4.4357,-3.9392 -5.7758,-5.7758 -1.34,-1.8366 -3.279,-4.3401 -4.3087,-5.5635 -1.0297,-1.2233 -3.7297,-4.6992 -6,-7.7242 -2.2703,-3.025 -4.4653,-5.65 -4.8778,-5.8333 -0.4125,-0.1834 -0.7505,-0.8584 -0.7512,-1.5 -7e-4,-0.6417 -1.1257,-2.4742 -2.5,-4.0722 -1.3743,-1.5981 -2.4988,-3.2007 -2.4988,-3.5615 0,-0.3607 -0.8965,-1.6182 -1.9924,-2.7945 -1.0958,-1.1762 -2.7833,-3.464 -3.75,-5.0841 -2.3962,-4.0157 -11.3726,-15.5758 -12.4144,-15.9877 -0.4638,-0.1834 -0.8432,-0.7868 -0.8432,-1.3411 0,-0.5542 -1.575,-2.8477 -3.5,-5.0966 -1.925,-2.249 -3.5,-4.4785 -3.5,-4.9545 0,-0.476 -1.125,-1.9904 -2.5,-3.3654 -1.375,-1.375 -2.5,-2.9244 -2.5,-3.4431 0,-0.9903 -2.3363,-4.0779 -5.1849,-6.8523 -1.8894,-1.8403 -3.8151,-6.3606 -3.8151,-8.9557 0,-1.6877 5.6328,-9.8055 10.8647,-15.658 1.475,-1.65 3.7791,-4.575 5.1203,-6.5 2.6241,-3.7666 15.8173,-20.7968 17.4963,-22.5849 0.5603,-0.5967 1.9187,-2.3408 3.0187,-3.8757 1.1,-1.5349 3.1246,-4.1967 4.4991,-5.9151 1.3745,-1.7184 2.8424,-3.5743 3.262,-4.1243 0.4195,-0.55 2.1606,-2.8 3.8691,-5 1.7084,-2.2 5.5437,-7.2794 8.5229,-11.2875 2.9792,-4.0081 5.8002,-7.0504 6.2689,-6.7607 0.4687,0.2897 0.7905,-0.2451 0.7151,-1.1884 -0.075,-0.9434 0.4029,-1.726 1.0629,-1.7393 0.66,-0.013 1.785,-0.6774 2.5,-1.4759 1.1223,-1.2532 1.0608,-1.2707 -0.45,-0.1275 -0.9625,0.7283 -1.75,0.8888 -1.75,0.3567 0,-1.0644 3.4115,-4.4328 4.0812,-4.0296 0.2304,0.1387 0.3222,0.08 0.204,-0.1293 -0.5849,-1.0387 1.9613,-4.0842 2.9195,-3.492 0.6494,0.4013 0.8225,0.2265 0.4202,-0.4245 -0.3763,-0.6088 0.9042,-3.1878 2.8455,-5.7311 1.9413,-2.5432 3.5365,-5.1521 3.5449,-5.7975 0.01,-0.6902 0.4334,-0.5557 1.0304,0.3266 1.2364,1.8271 0.1918,-3.4973 -1.2302,-6.2707 -0.4994,-0.9738 -0.6952,-2.1149 -0.4351,-2.5357 0.26,-0.4208 -0.2817,-0.8262 -1.2038,-0.901 -4.2727,-0.3465 -9.0857,-2.806 -8.8256,-4.51 0.2646,-1.7337 69.1762,-3.5042 71.4103,-1.8347 3.6039,2.6932 -3.7123,6.2744 -13.2389,6.4803 -1.828,0.039 -3.133,0.3832 -2.8998,0.7639 0.6343,1.0356 -6.353,4.0926 -7.5971,3.3237 -0.5912,-0.3655 -0.9514,-0.068 -0.8002,0.6599 0.1519,0.7324 -0.5026,1.263 -1.4645,1.1872 -0.9566,-0.075 -1.5386,0.1876 -1.2934,0.5844 0.6743,1.0909 -7.9724,9.2143 -8.8615,8.3252 -0.4249,-0.4249 -0.6225,-0.098 -0.4392,0.7275 0.1845,0.8304 -0.2578,1.3773 -0.991,1.2252 -0.7432,-0.1542 -1.0263,0.2074 -0.6452,0.8241 0.7548,1.2212 -3.3904,6.1553 -4.5625,5.4309 -0.4078,-0.252 -1.3548,0.3244 -2.1047,1.2808 -1.2337,1.5737 -1.1969,1.6085 0.3867,0.3666 3.0636,-2.4027 1.8797,0.3797 -1.4618,3.4353 -1.7665,1.6154 -2.554,2.0371 -1.75,0.9371 1.3494,-1.8462 1.3281,-1.8951 -0.2772,-0.6367 -0.9564,0.7498 -1.5125,1.7298 -1.2357,2.1776 0.2768,0.4479 -0.6644,2.0844 -2.0917,3.6367 -1.4272,1.5523 -2.2563,2.1474 -1.8423,1.3224 0.5016,-0.9999 0.029,-0.8649 -1.4194,0.405 -1.1945,1.0477 -2.1719,2.3712 -2.1719,2.9411 0,0.5699 0.6607,0.1627 1.4682,-0.905 0.8075,-1.0676 1.4825,-1.457 1.5,-0.8654 0.017,0.5916 -1.1657,2.1666 -2.6294,3.5 -1.4637,1.3334 -2.2864,1.7493 -1.8281,0.9243 0.5311,-0.9563 0.046,-0.8095 -1.3388,0.405 -2.4262,2.1281 -3.0239,3.5471 -0.6719,1.595 2.3686,-1.9658 1.6872,0.2154 -1.0334,3.3079 -1.4088,1.6014 -2.9655,2.5018 -3.6229,2.0955 -0.7179,-0.4437 -0.8806,-0.2723 -0.4315,0.4545 0.5619,0.9092 -5.2545,9.0256 -9.4179,13.1421 -0.2781,0.275 -1.6947,2.075 -3.148,4 -1.4533,1.925 -3.4758,4.4004 -4.4943,5.5008 -1.0186,1.1005 -3.0352,3.5755 -4.4815,5.5 -1.4462,1.9246 -4.0337,4.9576 -5.75,6.7401 -2.9949,3.1105 -3.9577,5.7203 -2.3705,6.4258 0.4125,0.1833 2.5423,2.5833 4.7329,5.3333 2.1906,2.75 4.3281,5.15 4.75,5.3333 0.4219,0.1834 0.7671,1.1959 0.7671,2.25 0,1.0542 0.4444,1.9167 0.9875,1.9167 0.5431,0 2.1854,1.9125 3.6495,4.25 1.4641,2.3375 2.9351,4.475 3.2689,4.75 0.5792,0.4772 2.4862,3.0561 10.8598,14.6867 2.0539,2.8528 4.6343,6.4045 5.7343,7.8928 1.1,1.4883 3.35,4.6265 5,6.9737 1.65,2.3473 5.1375,7.0131 7.75,10.3684 2.6125,3.3554 4.75,6.3869 4.75,6.7366 0,0.3497 1.575,2.5579 3.5,4.9071 1.925,2.3492 3.5,4.5414 3.5,4.8716 0,0.3302 2.0248,3.1795 4.4994,6.3317 2.4747,3.1523 4.4997,6.0933 4.5,6.5356 4e-4,0.4424 1.3486,2.2424 2.996,4 1.6475,1.7577 2.9975,3.5012 3,3.8744 0,0.3732 0.5764,1.2732 1.2751,2 0.6988,0.7268 3.0218,3.7311 5.1623,6.6764 4.1974,5.7756 11.7917,12.2911 16.8934,14.4937 7.2856,3.1454 8.9095,3.6513 11.7209,3.6513 2.6144,0 2.9529,0.344 2.9529,3 v 3 h -22.8333 c -12.5583,0 -23.1039,-0.2706 -23.4346,-0.6013 z m 52.0497,-1.1395 c -0.8675,-3.3447 0.2582,-4.2592 5.2426,-4.2592 2.6717,0 5.1357,-0.45 5.4756,-1 0.34,-0.55 1.4915,-1 2.5591,-1 1.0675,0 1.9409,-0.45 1.9409,-1 0,-0.55 0.675,-1 1.5,-1 0.825,0 1.5,-0.3651 1.5,-0.8114 0,-0.4463 0.7875,-1.6838 1.75,-2.75 4.2167,-4.671 4.149,-3.0998 4.4646,-103.5987 0.167,-53.1631 0.01,-96.4782 -0.3507,-96.2558 -0.9099,0.5624 -1.9995,-2.5556 -1.2928,-3.6991 0.3177,-0.514 0.1896,-0.8109 -0.2846,-0.6598 -1.1076,0.353 -6.8722,-5.38 -6.5206,-6.4848 0.1462,-0.4594 -0.3038,-0.7308 -1,-0.6031 -5.4324,0.9967 -15.0557,-2.2183 -14.0994,-4.7104 0.851,-2.2178 98.2605,-2.135 97.9349,0.083 -0.2159,1.4715 -2.6014,4.4863 -2.6014,3.2878 0,-0.3312 -2.0358,0.01 -4.524,0.7594 -2.4882,0.7488 -5.3007,1.1123 -6.25,0.8078 -1.4635,-0.4695 -1.4978,-0.3897 -0.226,0.5253 1.4816,1.0657 0.4136,1.6486 -2.25,1.228 -0.4125,-0.065 -0.6375,0.4441 -0.5,1.1316 0.1375,0.6875 -0.3125,1.1375 -1,1 -0.6875,-0.1375 -1.1544,0.088 -1.0375,0.5 0.3982,1.4058 -2.3094,5.3081 -3.2708,4.714 -1.6554,-1.0232 -0.4664,195.6756 1.2005,198.6 3.6577,6.4169 9.2228,9.8955 17.3578,10.8496 4.5103,0.529 5,0.8313 5,3.0864 v 2.5 l -50.1309,0.2592 c -47.1286,0.2436 -50.1583,0.1538 -50.5873,-1.5 z M 242.1662,1014.6022 c -2.80755,-0.6933 -0.17515,-5.2855 3.02982,-5.2855 0.61728,0 4.18185,-1.533 7.92126,-3.4067 3.7394,-1.8737 8.37392,-4.0799 10.29892,-4.9027 1.925,-0.8228 5.75,-2.48474 8.5,-3.69294 5.92432,-2.60304 9.27372,-3.9985 12,-4.99959 1.1,-0.40392 4.7,-1.98816 8,-3.52052 3.3,-1.53237 7.125,-3.21918 8.5,-3.74848 1.375,-0.52929 3.28139,-1.35985 4.23643,-1.84568 0.95504,-0.48583 2.41754,-0.88333 3.25,-0.88333 0.83246,0 1.51357,-0.45 1.51357,-1 0,-0.55 0.81578,-1 1.81285,-1 0.99706,0 4.14486,-1.125 6.99509,-2.5 2.85022,-1.375 5.86552,-2.5 6.70072,-2.5 0.8352,0 2.4124,-0.45 3.5049,-1 1.0925,-0.55 2.8803,-1.45 3.9729,-2 1.0925,-0.55 2.8925,-1 4,-1 1.1074,0 2.0135,-0.33989 2.0135,-0.75531 0,-0.41542 1.4625,-1.25344 3.25,-1.86227 7.7974,-2.65584 13.3742,-4.70771 14.9865,-5.51402 0.955,-0.47762 2.6425,-0.8684 3.75,-0.8684 1.1074,0 2.0135,-0.45 2.0135,-1 0,-0.55 1.035,-1 2.3,-1 1.265,0 2.7275,-0.39556 3.25,-0.87902 0.5225,-0.48347 5.9,-2.53419 11.95,-4.55716 6.05,-2.02298 11.9,-4.04049 13,-4.48335 5.1406,-2.06962 15.2755,-5.39583 17.7623,-5.82943 1.5192,-0.2649 3.0083,-0.87975 3.309,-1.36634 0.3007,-0.48658 1.6187,-0.8847 2.9287,-0.8847 1.3101,0 2.6601,-0.45 3,-1 0.34,-0.55 1.7226,-1 3.0726,-1 1.35,0 3.236,-0.4101 4.191,-0.91134 1.9997,-1.0495 8.719,-3.27947 15.2364,-5.05658 2.475,-0.67485 5.2814,-1.63315 6.2365,-2.12954 0.955,-0.4964 2.6486,-0.90254 3.7635,-0.90254 1.115,0 2.8086,-0.394 3.7636,-0.87556 0.955,-0.48155 4.4364,-1.65435 7.7364,-2.60622 3.3,-0.95186 7.0337,-2.13286 8.2971,-2.62444 1.2634,-0.49158 3.3743,-0.89378 4.691,-0.89378 1.3166,0 2.672,-0.45 3.0119,-1 0.34,-0.55 1.915,-1 3.5,-1 1.5851,0 3.1601,-0.45 3.5,-1 0.34,-0.55 1.829,-1.00949 3.3091,-1.02109 1.48,-0.0116 5.8409,-1.13464 9.6909,-2.49564 3.85,-1.36101 8.211,-2.47652 9.691,-2.47891 1.4801,-0.002 2.9397,-0.40683 3.2438,-0.89873 0.304,-0.4919 2.3555,-1.1669 4.559,-1.5 2.2034,-0.3331 5.8091,-0.87816 8.0125,-1.21126 2.2035,-0.3331 4.255,-1.0081 4.559,-1.5 0.304,-0.4919 1.6808,-0.89437 3.0595,-0.89437 1.3787,0 3.3707,-0.46239 4.4267,-1.02753 1.056,-0.56515 4.0639,-1.49117 6.6842,-2.05784 2.6204,-0.56668 6.7893,-1.47926 9.2643,-2.02798 2.475,-0.54871 6.075,-1.22559 8,-1.50416 1.925,-0.27858 4.4,-0.89794 5.5,-1.37636 1.1,-0.47841 3.35,-1.10408 5,-1.39036 1.65,-0.28628 5.925,-1.25564 9.5,-2.15414 7.3324,-1.84282 14.5943,-3.30046 20.5,-4.11488 2.2,-0.30338 4.4275,-0.95551 4.95,-1.44918 0.5225,-0.49366 2.8585,-0.89757 5.191,-0.89757 2.3326,0 4.5191,-0.45 4.859,-1 0.34,-0.55 2.054,-0.99622 3.8091,-0.9916 3.0234,0.008 13.5757,-2.12828 20.2619,-4.10191 1.6891,-0.49857 4.7266,-0.90649 6.75,-0.90649 3.6164,0 3.679,-0.0671 3.679,-3.94098 0,-2.16754 0.45,-4.2191 1,-4.55902 0.55,-0.33992 1,-1.31828 1,-2.17415 0,-1.77408 6.4563,-8.0185 9.1865,-8.88503 1.9968,-0.63378 2.5734,-6.9797 0.927,-10.20439 -0.7778,-1.52344 -3.344,-11.2406 -6.2687,-23.73643 -0.5149,-2.2 -1.3862,-5.8 -1.9362,-8 -0.55,-2.2 -1.45,-5.8 -2,-8 -0.55,-2.2 -1.3979,-5.575 -1.8843,-7.5 -0.4863,-1.925 -1.6275,-6.5375 -2.5359,-10.25 l -1.6516,-6.75 h -4.2518 c -12.1499,0 -16.9789,-16.33836 -7.9476,-26.88944 3.8901,-4.54472 3.8952,-4.82013 0.3545,-19.11056 -0.6132,-2.475 -1.3429,-5.85 -1.6215,-7.5 -0.2787,-1.65 -0.8921,-3.9 -1.3632,-5 -0.4711,-1.1 -1.0713,-3.125 -1.3337,-4.5 -1.1768,-6.16477 -6.9634,-28.67148 -7.774,-30.23643 -0.4947,-0.95504 -0.8995,-2.72309 -0.8995,-3.929 0,-1.20592 -0.4208,-3.57452 -0.9352,-5.26357 -0.5143,-1.68905 -1.6685,-5.996 -2.5648,-9.571 -0.8962,-3.575 -2.0504,-7.88195 -2.5648,-9.571 -0.5143,-1.68905 -0.9352,-4.02499 -0.9352,-5.19098 0,-1.16599 -0.45,-2.3981 -1,-2.73802 -0.55,-0.33992 -1,-1.79703 -1,-3.23802 0,-1.44099 -0.4195,-4.00193 -0.9322,-5.69098 -0.5127,-1.68905 -1.4008,-4.871 -1.9734,-7.071 -0.5726,-2.2 -1.7698,-6.7 -2.6604,-10 -0.8906,-3.3 -2.0276,-7.6875 -2.5266,-9.75 -0.4991,-2.0625 -1.3574,-5.55 -1.9074,-7.75 -0.55,-2.2 -1.4142,-5.6875 -1.9205,-7.75 -2.231,-9.08852 -4.2796,-16.98149 -5.1443,-19.821 -0.5143,-1.68905 -0.9352,-4.02499 -0.9352,-5.19098 0,-1.16599 -0.4024,-2.36872 -0.8943,-2.67274 -0.4919,-0.30401 -1.1303,-2.24306 -1.4186,-4.30901 -0.5947,-4.26172 -1.7343,-9.08159 -4.198,-17.75627 -2.9707,-10.45986 -3.6188,-12.90279 -4.5098,-17 -0.4785,-2.2 -1.3445,-5.9125 -1.9246,-8.25 -0.5801,-2.3375 -1.4567,-5.9375 -1.9481,-8 -0.4914,-2.0625 -2.1088,-8.25 -3.5942,-13.75 -1.4854,-5.5 -3.1084,-11.6875 -3.6066,-13.75 -4.7005,-19.45993 -6.5224,-24.75 -8.5237,-24.75 -15.0959,0 -31.8642,-29.64817 -26.3664,-46.6187 1.9967,-6.1634 4.39,-11.3813 5.2202,-11.3813 0.4203,0 0.7641,-0.54384 0.7641,-1.20854 0,-0.6647 2.1507,-3.2522 4.7792,-5.75 20.3519,-19.33953 52.818,-12.48131 63.6511,13.44581 1.9062,4.56224 2.2009,24.3182 0.4143,27.7763 -0.6355,1.23004 -1.4851,2.91143 -1.888,3.73643 -1.2818,2.62442 9.398,20.18101 32.2403,53 15.239,21.89495 18.3889,26.15526 28.808,38.96255 2.4776,3.0456 6.3998,8.03417 8.7159,11.08571 14.5607,19.18403 61.46,66.95174 65.7346,66.95174 0.3557,0 1.3366,-1.6875 2.1799,-3.75 0.8433,-2.0625 2.5828,-6 3.8655,-8.75 1.2827,-2.75 2.8849,-6.8 3.5603,-9 1.1654,-3.79587 3.2117,-8.92012 5.0861,-12.73643 0.469,-0.95504 0.8528,-2.64864 0.8528,-3.76357 0,-1.11493 0.45,-2.92103 1,-4.01357 0.55,-1.09254 1.45,-2.88032 2,-3.97286 0.55,-1.09254 1,-2.89864 1,-4.01357 0,-1.11493 0.4023,-2.80853 0.8941,-3.76357 0.4917,-0.95504 1.405,-4.21143 2.0296,-7.23643 1.2264,-5.94032 2.2894,-10.22512 4.0932,-16.5 0.6325,-2.2 1.5342,-6.025 2.0039,-8.5 0.4697,-2.475 1.3323,-6.525 1.917,-9 1.5474,-6.55099 4.1376,-20.50769 5.1963,-28 2.1612,-15.29458 2.7766,-19.96218 3.6915,-28 0.5321,-4.675 1.2818,-10.58198 1.666,-13.12662 0.6796,-4.50103 0.5952,-4.70461 -3.108,-7.5 -4.7284,-3.56926 -9.3154,-8.49255 -9.3543,-10.04005 -0.016,-0.64166 -0.3833,-1.31666 -0.816,-1.5 -5.9847,-2.53556 -7.9881,-23.68659 -3.1077,-32.80894 3.7458,-7.00162 9.4616,-13.43484 12.9084,-14.52882 1.0923,-0.34669 1.986,-1.05002 1.986,-1.56296 0,-0.51293 0.81,-0.93261 1.8,-0.93261 0.99,0 2.3615,-0.56146 3.0477,-1.24769 3.444,-3.44395 26.1523,-1.12442 31.5451,3.22215 6.5418,5.27266 8.6933,7.52042 9.2246,9.63696 0.3297,1.31372 1.0007,2.38858 1.491,2.38858 0.4904,0 0.8916,0.69083 0.8916,1.53518 0,0.84435 0.6388,2.53185 1.4194,3.75 4.7025,7.3377 0.3398,32.95134 -6.0288,35.39519 -2.0634,0.79178 -1.7271,7.71975 0.6094,12.55577 1.1,2.27673 2,4.7361 2,5.46526 0,0.72915 0.4115,2.10713 0.9144,3.06217 0.5028,0.95504 1.8997,4.21143 3.104,7.23643 4.0543,10.1831 4.8305,11.97337 11.4906,26.5 1.5129,3.3 4.7804,10.275 7.2609,15.5 2.4806,5.225 5.009,10.625 5.6186,12 0.6096,1.375 1.3341,2.725 1.6099,3 0.6992,0.69694 3.80521,6.32199 7.43351,13.46217 1.6875,3.32081 3.4056,6.18783 3.8181,6.37116 0.4125,0.18334 0.75,0.98965 0.75,1.79182 0,0.80216 0.9202,2.44617 2.0449,3.65334 1.1246,1.20718 2.6168,3.32587 3.316,4.70819 2.6939,5.32606 4.4845,8.1081 16.0997,25.01332 9.1463,13.3119 16.7132,23.00353 17.9281,22.96206 1.237,-0.0422 8.6113,-10.23453 8.6113,-11.90213 0,-0.58296 0.45,-1.05993 1,-1.05993 0.55,0 1,-0.675 1,-1.5 0,-0.825 0.3976,-1.5 0.8834,-1.5 0.4859,0 1.1538,-0.7875 1.4842,-1.75 0.3305,-0.9625 1.7425,-3.55 3.1379,-5.75 1.3953,-2.2 2.832,-4.675 3.1928,-5.5 0.3607,-0.825 0.9218,-1.725 1.2469,-2 0.325,-0.275 2.0339,-3.2 3.79743,-6.5 1.7636,-3.3 3.6623,-5.88938 4.2194,-5.75418 0.5571,0.13521 0.9061,-0.76479 0.7755,-2 -0.1502,-1.42055 0.2492,-2.14485 1.0869,-1.97104 0.7283,0.15112 1.0368,-0.1904 0.6854,-0.75895 -0.9514,-1.53947 0.4649,-5.14954 1.7167,-4.37584 0.6123,0.37838 0.7968,0.20668 0.4248,-0.39524 -0.7779,-1.25859 0.2526,-4.42219 1.2414,-3.8111 0.3757,0.23219 0.7768,-0.71059 0.8914,-2.09507 0.2493,-3.01283 1.0759,-4.54314 2.1091,-3.90461 0.4152,0.25662 0.7216,-0.52354 0.6809,-1.73369 -0.045,-1.32468 0.4534,-2.0908 1.2513,-1.92516 0.9082,0.18853 1.1239,-0.35946 0.6854,-1.74105 -0.8407,-2.64893 0.3851,-4.75851 1.6797,-2.89083 0.6698,0.96625 0.7713,0.7497 0.3524,-0.75236 -0.6988,-2.5055 0.2966,-5.60814 1.5505,-4.8332 0.486,0.30041 0.5874,-0.226 0.2252,-1.16979 -0.4821,-1.25638 -0.3037,-1.49674 0.666,-0.89743 0.8907,0.55051 1.086,0.43274 0.5963,-0.35964 -0.9066,-1.46683 2.3563,-10.28766 3.5358,-9.5587 0.4732,0.29247 0.5808,-0.19697 0.239,-1.08764 -0.3418,-0.89067 -0.1642,-2.60154 0.3947,-3.80194 1.5439,-3.31635 6.0198,-14.88766 6.7487,-17.44706 0.3547,-1.24549 1.0574,-2.00962 1.5615,-1.69806 0.5041,0.31155 0.6369,-0.16227 0.2951,-1.05294 -0.3418,-0.89067 -0.169,-2.60154 0.3839,-3.80194 1.6975,-3.68534 10.2604,-30.53294 10.2604,-32.16977 0,-0.84695 0.4062,-2.3213 0.9026,-3.27634 0.4964,-0.95504 1.3615,-3.53643 1.9224,-5.73643 0.561,-2.2 2.0033,-7.375 3.2051,-11.5 1.2019,-4.125 2.3831,-8.625 2.6251,-10 0.2419,-1.375 0.9158,-4.11286 1.4976,-6.08414 1.0429,-3.53346 0.9733,-3.66824 -4.9252,-9.53016 -35.1934,-34.97567 3.8004,-91.7649 48.7724,-71.03045 27.7465,12.79258 33.652,47.89012 11.9037,70.74592 -6.1041,6.41499 -6.4838,7.94835 -3.9366,15.89883 0.4405,1.375 1.2854,4.3 1.8775,6.5 0.5922,2.2 2.2194,7.69194 3.616,12.20431 1.3967,4.51237 2.5394,8.90597 2.5394,9.76357 0,0.85759 0.4061,2.34065 0.9025,3.29569 0.4964,0.95504 1.4448,3.76143 2.1075,6.23643 0.6627,2.475 1.8025,6.075 2.5329,8 0.7304,1.925 1.8614,5.3 2.5134,7.5 0.6519,2.2 1.5809,4.4275 2.0645,4.95 0.4836,0.5225 0.8792,1.95844 0.8792,3.19098 0,1.23254 0.3963,2.48589 0.8806,2.78523 0.4843,0.29933 1.1065,1.56338 1.3827,2.80901 0.4945,2.23028 6.0763,18.3634 7.7033,22.26478 0.4587,1.1 1.8227,4.25 3.031,7 1.2082,2.75 2.8749,6.575 3.7037,8.5 5.9921,13.91856 19.1125,40.67651 22.3102,45.5 1.4585,2.2 2.9556,4.675 3.3269,5.5 1.3009,2.89013 5.2096,8.97749 10.6616,16.60401 3.025,4.23154 5.95,8.393 6.5,9.24769 0.55,0.85469 2.2241,2.91729 3.7203,4.58355 l 2.7202,3.02955 3.7798,-4.09403 c 3.703,-4.01094 7.8076,-9.1171 14.9683,-18.62077 1.9684,-2.6125 3.9688,-4.75 4.4452,-4.75 0.4764,0 0.8662,-0.66986 0.8662,-1.48857 0,-1.33361 1.4591,-3.53464 4.5561,-6.87302 0.5809,-0.62613 1.9154,-2.60091 2.9656,-4.38841 1.0502,-1.7875 2.2625,-3.25 2.6939,-3.25 0.4314,0 0.7844,-0.41775 0.7844,-0.92833 0,-1.23045 7.2525,-13.4778 8.2341,-13.905 0.4212,-0.18334 0.7659,-0.73288 0.7659,-1.2212 0,-0.48833 1.9125,-4.16333 4.25,-8.16667 2.3375,-4.00334 4.8885,-8.5163 5.669,-10.0288 0.7804,-1.5125 1.7929,-2.75 2.25,-2.75 0.457,0 0.831,-0.66131 0.831,-1.46958 0,-0.80827 0.9715,-3.17077 2.1588,-5.25 4.3338,-7.58904 13.8195,-26.81427 13.8302,-28.03042 0.01,-0.6875 0.461,-1.25 1.011,-1.25 0.55,0 1,-1.035 1,-2.3 0,-1.265 0.3691,-2.7275 0.8203,-3.25 0.4512,-0.5225 2.0964,-4.1 3.6561,-7.95 1.5597,-3.85 3.2156,-7.4275 3.6797,-7.95 0.4642,-0.5225 0.8439,-1.76 0.8439,-2.75 0,-0.99 0.3375,-1.80351 0.75,-1.8078 1.1065,-0.0115 3.25,-5.04548 3.25,-7.63255 0,-1.23289 0.4084,-2.49401 0.9075,-2.80249 0.4991,-0.30848 1.698,-3.14754 2.6641,-6.30902 0.9661,-3.16148 2.1496,-6.26453 2.6299,-6.89567 0.7902,-1.03827 -2.8619,-9.13283 -5.325,-11.80247 -0.4821,-0.5225 -0.8865,-1.6475 -0.8987,-2.5 -0.012,-0.8525 -0.9023,-2.675 -1.9778,-4.05 -5.659,-7.23459 -0.6109,-27.81897 9.0845,-37.04368 8.0982,-7.70496 30.9923,-12.27949 36.0655,-7.20632 0.6875,0.6875 2.06,1.25 3.05,1.25 0.99,0 1.8,0.35298 1.8,0.78439 0,0.43142 1.4621,1.6481 3.2492,2.70374 12.9267,7.63599 18.2976,27.56773 11.4555,42.51187 -3.0855,6.73923 -7.6968,12.76839 -10.9444,14.30948 -5.2342,2.48375 -6.0179,3.91075 -5.4408,9.90685 1.48,15.3792 3.154,27.33572 5.2198,37.28367 0.6593,3.17494 2.1371,12.99203 3.0859,20.5 0.3128,2.475 0.9751,4.9275 1.4718,5.45 0.4966,0.5225 0.903,2.795 0.903,5.05 0,2.255 0.365,4.5275 0.8112,5.05 0.4462,0.5225 1.6004,4.55 2.5649,8.95 0.9645,4.4 2.1745,9.38195 2.6888,11.071 0.5143,1.68905 0.9351,4.02499 0.9351,5.19098 0,1.16599 0.45,2.3981 1,2.73802 0.55,0.33992 1,2.09148 1,3.89235 0,1.80087 0.2986,3.57293 0.6636,3.9379 1.1333,1.13327 4.3364,10.97397 4.3364,13.32235 0,1.22615 0.45,2.50748 1,2.8474 0.55,0.33992 1.01,1.82898 1.0222,3.30902 0.012,1.48004 0.9023,3.81598 1.9778,5.19098 1.0755,1.375 1.9655,3.35858 1.9778,4.40796 0.076,6.48611 6.5527,15.06766 9.0769,12.0261 2.3531,-2.83526 7.0966,-4.67119 10.6001,-4.10265 l 3.3452,0.54285 v -4.25823 c 0,-3.646 0.611,-4.89708 4.25,-8.70168 2.3375,-2.4439 5.2999,-5.7869 6.5831,-7.4289 1.2832,-1.642 5.3332,-6.13868 9,-9.99262 3.6668,-3.85394 7.8585,-8.57894 9.315,-10.5 1.4564,-1.92106 3.4814,-4.3932 4.5,-5.49364 1.0185,-1.10045 3.1856,-3.80045 4.8157,-6 1.63,-2.19956 3.43,-4.49043 4,-5.09083 0.5699,-0.6004 2.1612,-2.59376 3.5362,-4.42968 1.375,-1.83592 4.086,-5.39469 6.0244,-7.90836 1.9384,-2.51368 5.2705,-7.04532 7.4045,-10.07032 2.1341,-3.025 4.2606,-5.65 4.7256,-5.83333 0.465,-0.18334 0.8455,-0.74081 0.8455,-1.23884 0,-0.49802 1.9658,-3.49802 4.3685,-6.66666 5.2952,-6.98333 28.6315,-41.82198 28.6315,-42.74389 0,-0.36131 1.4619,-2.76301 3.2487,-5.3371 5.9214,-8.53056 7.4376,-14.09389 4.6113,-16.92018 -1.5466,-1.54663 -1.5466,-22.97337 0,-24.52 0.627,-0.627 1.14,-1.71626 1.14,-2.42058 0,-6.2641 17.2437,-22.31942 23.9714,-22.31942 1.0508,0 2.1887,-0.45 2.5286,-1 0.8285,-1.3405 15.3305,-1.27793 19.6008,0.0846 13.6066,4.3414 20.7191,11.06328 27.3225,25.82197 7.5541,16.88371 -7.4434,44.80314 -26.5547,49.43436 -2.6254,0.63622 -5.8686,7.48722 -5.8686,12.397 0,1.02415 -0.4039,2.2896 -0.8976,2.8121 -0.4936,0.5225 -1.1226,2.75 -1.3977,4.95 -0.2751,2.2 -0.9577,5.575 -1.5168,7.5 -0.5592,1.925 -1.7419,5.975 -2.6283,9 -0.8864,3.025 -1.8856,7.19847 -2.2206,9.27438 -0.3349,2.07591 -0.9982,4.01497 -1.4739,4.30902 -0.4758,0.29405 -0.8651,2.05652 -0.8651,3.9166 0,1.86008 -0.45,3.66008 -1,4 -0.55,0.33992 -1,1.79703 -1,3.23802 0,1.44099 -0.4195,4.00193 -0.9322,5.69098 -0.5128,1.68905 -1.3913,4.871 -1.9524,7.071 -0.5611,2.2 -1.7479,6.7 -2.6374,10 -0.8895,3.3 -1.9988,7.575 -2.4651,9.5 -0.4664,1.925 -1.3088,5.3 -1.8722,7.5 -1.0516,4.10665 -5.5828,22.25336 -7.1164,28.5 -0.4726,1.925 -1.3835,5.525 -2.0243,8 -0.6408,2.475 -1.5428,6.075 -2.0046,8 -0.4618,1.925 -1.5497,5.91418 -2.4175,8.86483 -0.8679,2.95066 -1.5779,6.18661 -1.5779,7.19099 0,1.00438 -0.4025,2.07488 -0.8944,2.3789 -0.4919,0.30401 -1.1302,2.24306 -1.4185,4.30901 -0.2883,2.06595 -1.0109,5.66877 -1.6057,8.00627 -0.5948,2.3375 -1.4977,5.9375 -2.0064,8 -0.5088,2.0625 -1.6745,6.45 -2.5906,9.75 -0.9161,3.3 -1.8974,7.69032 -2.1806,9.75627 -0.2833,2.06595 -0.9175,4.005 -1.4094,4.30901 -0.4919,0.30402 -0.8944,2.07464 -0.8944,3.93472 0,1.86008 -0.4025,3.6307 -0.8944,3.93472 -0.4919,0.30401 -1.1302,2.24306 -1.4185,4.30901 -0.553,3.96203 -1.4873,7.92843 -4.1827,17.75627 -0.905,3.3 -1.8695,7.35 -2.1431,9 -0.2737,1.65 -0.883,3.9 -1.3541,5 -0.4711,1.1 -1.1396,3.35 -1.4856,5 -0.346,1.65 -1.0083,4.8 -1.4719,7 -0.4635,2.2 -1.7893,7.2568 -2.9462,11.23734 -2.6256,9.03376 -2.6175,9.64843 0.1465,11.13399 12.5034,6.72011 8.361,26.92638 -5.9373,28.96155 -4.1459,0.59012 -4.8591,1.03014 -5.1474,3.17607 -0.184,1.37008 -0.7465,2.91855 -1.25,3.44105 -0.5034,0.5225 -0.9153,2.06555 -0.9153,3.429 0,1.36345 -0.4195,3.86095 -0.9322,5.55 -0.8721,2.87269 -1.4391,5.04541 -4.1286,15.821 -1.2912,5.17322 -3.7462,14.15312 -5.0089,18.321 -0.5117,1.68905 -0.9303,4.24999 -0.9303,5.69098 0,1.44099 -0.4025,2.86872 -0.8944,3.17274 -0.4919,0.30401 -1.1306,2.24306 -1.4194,4.30901 -0.2888,2.06595 -0.8202,4.89649 -1.1809,6.2901 -0.5767,2.22827 -0.2101,2.70872 3.0406,3.98418 6.5191,2.5579 11.4541,9.28894 11.4541,15.62278 0,5.33892 0.012,5.35921 3.134,5.35921 1.7237,0 4.7612,0.41 6.75,0.91111 9.2931,2.34155 19.8856,4.48836 28.116,5.69835 1.925,0.28301 4.4,0.91111 5.5,1.39579 1.1,0.48468 3.8,1.10267 6,1.37332 2.2,0.27065 6.025,0.924 8.5,1.45189 2.475,0.52789 7.2,1.49857 10.5,2.15706 3.3,0.6585 6.45,1.55507 7,1.99239 0.55,0.43732 2.8,1.04164 5,1.34294 2.2,0.30129 6.25,1.05189 9,1.66798 2.75,0.6161 6.575,1.34811 8.5,1.62668 1.925,0.27858 4.4,0.86846 5.5,1.31086 2.8091,1.12976 11.3793,3.28136 15.2593,3.83094 1.7926,0.25392 3.5066,0.86195 3.809,1.35118 0.3023,0.48923 2.0716,0.88951 3.9317,0.88951 1.8601,0 3.6601,0.45 4,1 0.3399,0.55 1.797,1 3.238,1 1.441,0 4.002,0.42532 5.691,0.94515 1.6891,0.51984 5.771,1.70269 9.071,2.62855 3.3,0.92587 6.4275,2.07555 6.95,2.55485 0.5225,0.4793 2.4411,0.87145 4.2636,0.87145 1.8224,0 4.0949,0.40614 5.05,0.90254 0.955,0.49639 3.7614,1.42688 6.2364,2.06776 8.1414,2.10813 10.4327,2.73535 16.5,4.51686 3.3,0.96895 6.7814,2.15573 7.7364,2.63728 0.9551,0.48156 2.8676,0.87556 4.25,0.87556 1.3825,0 2.5136,0.45 2.5136,1 0,0.55 1.1038,1 2.4529,1 1.3492,0 3.4867,0.40921 4.75,0.90937 1.2634,0.50015 4.9971,1.68299 8.2971,2.62854 3.3,0.94555 6.4275,2.11134 6.95,2.59064 0.5225,0.4793 1.9584,0.87145 3.191,0.87145 1.2325,0 2.5191,0.45 2.859,1 0.3399,0.55 1.7226,1 3.0726,1 1.35,0 3.2359,0.40188 4.191,0.89307 0.955,0.49119 5.7864,2.14101 10.7364,3.66627 4.95,1.52526 9.4275,3.14838 9.95,3.60693 0.5225,0.45855 1.9584,0.83373 3.191,0.83373 1.2325,0 2.5191,0.45 2.859,1 0.3399,0.55 1.4976,1 2.5726,1 1.075,0 2.7359,0.42204 3.691,0.93787 0.955,0.51583 5.1114,2.12691 9.2364,3.58018 4.125,1.45327 8.4,3.03357 9.5,3.51177 1.1,0.4782 4.2166,1.58862 6.9257,2.4676 2.7091,0.87899 7.2091,2.5231 10,3.65358 2.7909,1.13047 6.0868,2.45897 7.3243,2.95221 5.6391,2.24759 7.8731,3.19273 9.4864,4.01346 0.9551,0.48583 2.1948,0.88333 2.7549,0.88333 0.5602,0 3.3505,1.125 6.2008,2.5 2.8502,1.375 5.7791,2.5 6.5086,2.5 0.7296,0 2.1078,0.3975 3.0629,0.88333 0.955,0.48583 2.8614,1.32762 4.2364,1.87064 3.0569,1.20725 13.852,6.0841 16.2364,7.33504 0.9551,0.50104 2.3118,0.91099 3.0149,0.91099 0.7032,0 3.9718,1.29464 7.2636,2.87698 3.2918,1.58233 7.7851,3.65962 9.9851,4.61612 6.8141,2.96281 28.5,13.66021 28.5,14.05881 0,1.6056 -4.0017,2.1597 -6.4446,0.8924 -1.5312,-0.7944 -3.4076,-1.4444 -4.1697,-1.4444 -0.7621,0 -1.3857,-0.45 -1.3857,-1 0,-0.55 -1.1113,-1 -2.4696,-1 -1.3583,0 -4.0719,-0.9 -6.0304,-2 -1.9585,-1.1 -4.1857,-2 -4.9494,-2 -0.7637,0 -2.6625,-0.6334 -4.2196,-1.4075 -1.557,-0.7741 -4.181,-1.9515 -5.831,-2.6166 -1.65,-0.665 -3.7814,-1.6066 -4.7364,-2.0925 -0.9551,-0.48581 -2.5526,-0.88331 -3.55,-0.88331 -0.9975,0 -2.2411,-0.3581 -2.7636,-0.7959 -0.5225,-0.4377 -2.75,-1.3651 -4.95,-2.061 -2.2,-0.69581 -5.8,-1.96655 -8,-2.82383 -7.3791,-2.87544 -7.9852,-3.08724 -12,-4.19294 -9.2271,-2.54124 -15.0588,-4.4684 -15.95,-5.27088 -0.5225,-0.4705 -1.9584,-0.85545 -3.191,-0.85545 -1.2325,0 -2.5191,-0.45 -2.859,-1 -0.3399,-0.55 -1.9149,-1 -3.5,-1 -1.5851,0 -3.1601,-0.45 -3.5,-1 -0.3399,-0.55 -1.6953,-1 -3.012,-1 -1.3166,0 -3.4276,-0.40158 -4.6909,-0.89239 -6.5717,-2.55304 -18.857,-6.10761 -21.1093,-6.10761 -1.4134,0 -2.8172,-0.40028 -3.1195,-0.88951 -0.3024,-0.48923 -2.0164,-1.13172 -3.809,-1.42775 -4.4478,-0.7345 -10.1973,-2.16669 -16.7593,-4.1747 -3.025,-0.92567 -7.1903,-1.9162 -9.2563,-2.20117 -2.0659,-0.28498 -4.005,-0.9206 -4.309,-1.4125 -0.304,-0.4919 -1.5067,-0.89437 -2.6727,-0.89437 -1.166,0 -3.502,-0.41951 -5.191,-0.93224 -5.3829,-1.63404 -26.8456,-6.8028 -33.571,-8.08473 -2.475,-0.47176 -6.525,-1.37023 -9,-1.99659 -2.475,-0.62635 -6.975,-1.50671 -10,-1.95635 -3.025,-0.44963 -8.425,-1.57347 -12,-2.49742 -9.0928,-2.35002 -21.3678,-4.72464 -33.5,-6.48062 -13.1874,-1.90872 -19.1586,-2.96663 -22.4934,-3.98512 -1.9214,-0.58681 -5.1573,-1.06693 -7.191,-1.06693 -2.0337,0 -3.9757,-0.45 -4.3156,-1 -0.3399,-0.55 -2.8149,-1 -5.5,-1 -2.6851,0 -5.1601,-0.45 -5.5,-1 -0.3399,-0.55 -2.5899,-1 -5,-1 -2.4101,0 -4.6601,-0.45 -5,-1 -0.3399,-0.55 -3.06,-1 -6.0447,-1 -2.9846,0 -7.3456,-0.43001 -9.6909,-0.95558 -2.3454,-0.52557 -7.1894,-1.48563 -10.7644,-2.13346 -5.8495,-1.06001 -10.1931,-1.61163 -27.75,-3.52416 -2.8875,-0.31454 -5.25,-0.98025 -5.25,-1.47935 0,-0.4991 -3.1561,-0.90745 -7.0136,-0.90745 -3.8574,0 -7.7949,-0.41647 -8.75,-0.92549 -1.7883,-0.95313 -14.5235,-2.91856 -24.2364,-3.74042 -3.025,-0.25596 -6.4,-0.87238 -7.5,-1.36982 -1.1,-0.49744 -5.825,-1.11254 -10.5,-1.36689 -10.865,-0.59112 -21.152,-1.90941 -22.735,-2.91351 -0.6793,-0.43085 -5.4043,-0.77658 -10.5,-0.76828 -5.0958,0.008 -11.29,-0.40387 -13.765,-0.91595 -8.4523,-1.74876 -19.4925,-3.23056 -31,-4.16077 -6.325,-0.51129 -16,-1.35113 -21.5,-1.86632 -5.5,-0.51519 -17.65,-1.40359 -27,-1.97422 -9.35,-0.57063 -19.925,-1.44554 -23.5,-1.94425 -3.575,-0.4987 -13.925,-1.39326 -23,-1.9879 -9.075,-0.59464 -18.75,-1.51231 -21.5,-2.03927 -2.75,-0.52696 -11.975,-1.24379 -20.5,-1.59295 -8.525,-0.34917 -22.475,-1.00092 -31,-1.44835 -63.1422,-3.31393 -117.4354,-3.31047 -175.00003,0.0112 -9.625,0.55539 -24.7,1.42573 -33.5,1.9341 -21.6624,1.25142 -42.35521,2.88143 -46.00001,3.62351 -6.3265,1.28807 -28.6489,2.95001 -67.5,5.02547 -5.225,0.27912 -10.4,0.92659 -11.5,1.43883 -1.1,0.51223 -6.5,1.1008 -12,1.30793 -5.5,0.20714 -14.5,1.15345 -20,2.10293 -5.5,0.94949 -14.725,2.12347 -20.5,2.60887 -13.9513,1.17261 -19.0937,1.88857 -21.5,2.99335 -1.1,0.50504 -6.5,1.08715 -12,1.29359 -5.5,0.20644 -11.8,0.87908 -14,1.49477 -2.2,0.61569 -9.4,1.62416 -16,2.24105 -6.6,0.61688 -12.9,1.49982 -14,1.96207 -3.1212,1.31163 -13.2088,2.80368 -32.6452,4.82852 -4.7548,0.49535 -9.1239,1.19656 -9.7092,1.55824 -1.4551,0.89931 -13.1419,2.65608 -21.6456,3.25377 -3.85,0.2706 -7.4275,0.90695 -7.95,1.41411 -0.5225,0.50716 -3.5334,0.92211 -6.6909,0.92211 -3.1576,0 -6.0191,0.45 -6.3591,1 -0.3399,0.55 -3.0399,1 -6,1 -2.96,0 -5.66,0.45 -6,1 -0.3399,0.55 -2.7289,1.00277 -5.309,1.00616 -2.58,0.003 -5.8948,0.63424 -7.3662,1.40189 -1.4713,0.76765 -6.8713,1.91452 -12,2.5486 -5.1286,0.63408 -10.4498,1.38422 -11.8248,1.66697 -1.375,0.28275 -4.75,0.89121 -7.5,1.35213 -4.5795,0.76757 -11.6047,2.40827 -22,5.13795 -2.2,0.5777 -6.7,1.43407 -10,1.90304 -3.3,0.46898 -8.1375,1.33206 -10.75,1.91797 -2.6125,0.58591 -6.6625,1.48664 -9,2.00161 -2.3375,0.51498 -7.175,1.67222 -10.75,2.57165 -3.575,0.89942 -8.525,2.02531 -11,2.50196 -8.0775,1.55564 -10.4696,2.12784 -12.5,2.99007 -1.1,0.46714 -3.35,1.13243 -5,1.47842 -7.8826,1.65288 -11.4237,2.53118 -16.5,4.09243 -3.025,0.93037 -7.1903,1.90507 -9.2562,2.166 -2.066,0.26093 -4.005,0.87688 -4.309,1.36878 -0.3041,0.49184 -2.0747,0.89431 -3.9348,0.89431 -1.86,0 -3.66,0.45 -4,1 -0.3399,0.55 -1.8514,1 -3.359,1 -1.5075,0 -3.1685,0.41892 -3.691,0.93094 -1.0406,1.01979 -15.0078,5.03207 -20.2092,5.80544 -1.7926,0.26653 -3.5067,0.88488 -3.8091,1.37411 -0.3023,0.48923 -1.6542,0.88951 -3.0043,0.88951 -1.35,0 -3.2359,0.43925 -4.1909,0.9761 -1.6707,0.93911 -23.62821,8.61686 -27.73646,9.69841 -1.1,0.28959 -3.86284,1.36025 -6.13965,2.37926 -2.27681,1.019 -5.42681,2.17303 -7,2.56453 -1.57319,0.3915 -4.33654,1.5375 -6.14077,2.5468 -1.80423,1.00924 -4.36517,1.83494 -5.69098,1.83494 -1.32581,0 -2.68868,0.45 -3.0286,1 -0.33992,0.55 -1.44825,1 -2.46295,1 -1.0147,0 -4.63138,1.5749 -8.03705,3.4999 -3.40567,1.925 -7.05501,3.5 -8.10964,3.5 -1.05462,0 -2.69889,0.3975 -3.65393,0.8833 -5.70855,2.904 -10.55396,4.1263 -13.48643,3.4022 z"
       id="path1" />
  </g>
</svg>
